<svg xmlns="http://www.w3.org/2000/svg" viewBox="0 0 1600 820"><defs><linearGradient id="b" x2="1" y2="1"><stop stop-color="#020817"/><stop offset=".5" stop-color="#0b2a68"/><stop offset="1" stop-color="#020617"/></linearGradient><linearGradient id="r"><stop stop-color="#991b1b"/><stop offset=".5" stop-color="#ef4444"/><stop offset="1" stop-color="#991b1b"/></linearGradient></defs><rect width="1600" height="820" fill="url(#b)"/><path d="M0 430V350h70v80h35V300h85v130h35V345h70v85h35V275h95v155h40V330h70v100h40V250h85v180h45V315h70v115h35V290h85v140h40V340h75v90h40V260h75v170h40V315h80v115h45V285h80v145h35V350h70v80h40V300h85v130h40V345h75v85h40V310h90v120h35V365h75v65h35V330h75v100h40v-60h70v60H0Z" fill="#07132b" stroke="#2563eb" stroke-opacity=".3"/><rect x="285" y="105" width="1030" height="390" rx="18" fill="#020617" stroke="#2563eb" stroke-width="4"/><rect x="305" y="125" width="990" height="350" rx="10" fill="#071a3d"/><circle cx="800" cy="298" r="125" fill="none" stroke="#60a5fa" stroke-opacity=".3" stroke-width="4"/><text x="800" y="220" text-anchor="middle" font-family="Arial" font-size="38" font-weight="900" letter-spacing="9" fill="white">THE</text><text x="800" y="294" text-anchor="middle" font-family="Arial" font-size="78" font-weight="900" fill="white">PEOPLE'S</text><rect x="525" y="315" width="550" height="78" rx="10" fill="url(#r)"/><text x="800" y="371" text-anchor="middle" font-family="Arial" font-size="55" font-style="italic" font-weight="900" fill="white">REPORT</text><text x="800" y="427" text-anchor="middle" font-family="Arial" font-size="21" letter-spacing="7" fill="white">NEWS • FACTS • COMMUNITY</text><text x="800" y="455" text-anchor="middle" font-family="Arial" font-size="17" letter-spacing="6" fill="#bfdbfe">ACCOUNTABILITY</text><rect x="35" y="120" width="225" height="325" rx="16" fill="#030b20" stroke="#1e40af"/><rect x="1340" y="120" width="225" height="325" rx="16" fill="#030b20" stroke="#1e40af"/><g font-family="Arial" font-weight="800" fill="white" font-size="17"><text x="58" y="160" fill="#93c5fd">THE NEWSROOM</text><text x="58" y="205">POLITICS &amp; POLICY</text><text x="58" y="250">WORK &amp; ECONOMY</text><text x="58" y="295">COMMUNITY ISSUES</text><text x="58" y="340">CIVIL RIGHTS</text><text x="58" y="385">LEGISLATION</text><text x="58" y="430">PEOPLE'S VOICE</text><text x="1365" y="160" fill="#fca5a5">LIVE DESK</text><text x="1365" y="205">REAL NEWS</text><text x="1365" y="250">REAL PEOPLE</text><text x="1365" y="295">REAL ISSUES</text><text x="1365" y="340">REAL CONVERSATIONS</text><text x="1365" y="385">REAL CHANGE</text></g><rect y="620" width="1600" height="200" fill="#071329"/><path d="M0 625h1600" stroke="#ef4444" stroke-width="7"/><path d="M350 650h900l-95 130H445z" fill="#020617" stroke="#1e3a8a" stroke-width="4"/><text x="800" y="718" text-anchor="middle" font-family="Arial" font-size="29" font-weight="900" letter-spacing="4" fill="white">THE NEWS THAT MATTERS TO YOU</text><rect x="0" y="0" width="1600" height="72" fill="#020617"/><rect x="45" y="15" width="155" height="42" rx="8" fill="#dc2626"/><text x="122" y="45" text-anchor="middle" font-family="Arial" font-size="25" font-weight="900" fill="white">LIVE</text><text x="225" y="45" font-family="Arial" font-size="25" font-weight="700" letter-spacing="5" fill="#e5e7eb">NEW YORK CITY</text><text x="800" y="805" text-anchor="middle" font-family="Arial" font-size="15" letter-spacing="4" fill="#94a3b8">BEY MIRROR MEDIA • INFORMATION • PEOPLE • PROGRESS</text></svg>